<svg width="199" height="41" viewBox="0 0 199 41" fill="none" xmlns="http://www.w3.org/2000/svg">
<rect width="199" height="41" fill="#599E40" fill-opacity="0.24"/>
<path d="M187 34.8823H174C173.447 34.8823 173 35.33 173 35.8823C173 36.4346 173.447 36.8823 174 36.8823H189.586H190.293C190.683 36.8823 191 36.5655 191 36.1751V35.468V19.8823C191 19.33 190.552 18.8823 190 18.8823C189.447 18.8823 189 19.33 189 19.8823V32.8823C189 33.1004 189 33.2932 188.996 33.4644L174.768 19.236C174.377 18.8454 173.744 18.8455 173.353 19.2361C172.963 19.6266 172.963 20.2597 173.354 20.6502L187.582 34.8787C187.411 34.8823 187.218 34.8823 187 34.8823Z" fill="white"/>
<path d="M28.56 29L27.408 25.976H20.256L19.104 29H12.24L19.2 12.2H28.464L35.424 29H28.56ZM21.888 21.656H25.776L23.832 16.52L21.888 21.656ZM50.2695 14.36C53.9895 14.36 58.1415 15.992 58.1415 21.8C58.1415 27.608 53.9895 29.24 50.2695 29.24C48.0375 29.24 45.8295 28.568 44.3175 27.032V35H38.5575V14.6H44.3175V16.568C45.8295 15.032 48.0375 14.36 50.2695 14.36ZM48.3495 24.44C50.9175 24.44 52.3815 23.912 52.3815 21.8C52.3815 19.688 50.9175 19.16 48.3495 19.16C45.7815 19.16 44.3175 19.688 44.3175 21.8C44.3175 23.912 45.7815 24.44 48.3495 24.44ZM73.2064 14.36C76.9264 14.36 81.0784 15.992 81.0784 21.8C81.0784 27.608 76.9264 29.24 73.2064 29.24C70.9744 29.24 68.7664 28.568 67.2544 27.032V35H61.4944V14.6H67.2544V16.568C68.7664 15.032 70.9744 14.36 73.2064 14.36ZM71.2864 24.44C73.8544 24.44 75.3184 23.912 75.3184 21.8C75.3184 19.688 73.8544 19.16 71.2864 19.16C68.7184 19.16 67.2544 19.688 67.2544 21.8C67.2544 23.912 68.7184 24.44 71.2864 24.44ZM95.7832 14.36C97.4632 14.36 98.6392 14.6 99.5992 14.84V19.64C98.2552 19.304 97.1752 19.16 96.1192 19.16C94.0792 19.16 91.8472 19.4 90.1912 21.224V29H84.4312V14.6H90.1912V17C91.4632 15.104 93.4312 14.36 95.7832 14.36ZM112.279 29.24C106.159 29.24 102.487 27.128 102.487 21.8C102.487 16.472 106.159 14.36 112.279 14.36C118.399 14.36 122.071 16.472 122.071 21.8C122.071 27.128 118.399 29.24 112.279 29.24ZM112.279 24.44C114.847 24.44 116.311 23.912 116.311 21.8C116.311 19.688 114.847 19.16 112.279 19.16C109.711 19.16 108.247 19.688 108.247 21.8C108.247 23.912 109.711 24.44 112.279 24.44ZM137.212 14.6H143.452L137.452 29H129.268L123.268 14.6H129.508L133.372 24.656L137.212 14.6ZM154.21 24.68C156.298 24.68 157.138 24.536 158.314 23.6H163.954C163.234 27.416 160.138 29.24 154.21 29.24C148.57 29.24 144.658 27.128 144.658 21.8C144.658 16.472 148.57 14.36 154.45 14.36C160.378 14.36 164.194 16.472 164.194 22.76H150.538C151.018 24.296 152.626 24.68 154.21 24.68ZM154.426 18.44C152.89 18.44 151.45 18.584 150.802 19.88H158.05C157.402 18.584 155.962 18.44 154.426 18.44Z" fill="white"/>
</svg>
