<svg width="24" height="24" viewBox="0 0 24 24" fill="none" xmlns="http://www.w3.org/2000/svg">
<path d="M16.9998 19H3.99979C3.4475 19 2.99979 19.4477 2.99979 20C2.99979 20.5523 3.4475 21 3.99979 21H19.5857H20.2928C20.6833 21 20.9998 20.6832 20.9998 20.2927V19.5857V3.99998C20.9998 3.44769 20.5521 2.99998 19.9998 2.99998C19.4475 2.99998 18.9998 3.44769 18.9998 3.99998V17C18.9998 17.218 18.9998 17.4108 18.9962 17.5821L4.76774 3.35363C4.37718 2.96307 3.74396 2.96311 3.35345 3.35371C2.96301 3.74424 2.96305 4.37734 3.35354 4.76783L17.5821 18.9964C17.4108 19 17.2179 19 16.9998 19Z" fill="white"/>
</svg>
