<svg width="167" height="42" viewBox="0 0 167 42" fill="none" xmlns="http://www.w3.org/2000/svg">
<rect width="167" height="41.2941" fill="#599E40" fill-opacity="0.24"/>
<path d="M155 34.8823H142C141.447 34.8823 141 35.33 141 35.8823C141 36.4346 141.447 36.8823 142 36.8823H157.586H158.293C158.683 36.8823 159 36.5655 159 36.1751V35.468V19.8823C159 19.33 158.552 18.8823 158 18.8823C157.447 18.8823 157 19.33 157 19.8823V32.8823C157 33.1004 157 33.2932 156.996 33.4644L142.768 19.236C142.377 18.8454 141.744 18.8455 141.353 19.2361C140.963 19.6266 140.963 20.2597 141.354 20.6502L155.582 34.8787C155.411 34.8823 155.218 34.8823 155 34.8823Z" fill="white"/>
<path d="M19.24 20.576C19.24 14.744 22.408 11.96 29.8 11.96C36.52 11.96 40.024 14.312 40.288 19.616H33.904C33.664 18.032 32.44 17.24 29.8 17.24C26.104 17.24 25.48 18.8 25.48 20.576C25.48 22.376 26.128 23.96 29.8 23.96C32.44 23.96 33.664 23.144 33.904 21.536H40.288C40.024 26.864 36.544 29.24 29.8 29.24C22.408 29.24 19.24 26.432 19.24 20.576ZM43.6591 9.8H49.4191V29H43.6591V9.8ZM62.6256 14.36C68.5296 14.36 71.8896 16.376 71.9376 21.872V29H66.1776V27.248C63.9456 28.88 61.4496 29.24 58.9536 29.24C55.6656 29.24 52.7856 28.064 52.7856 24.944C52.7856 21.2 57.1056 20.216 61.3056 20.216C63.3216 20.216 64.8576 20.48 66.1776 20.96C66.1776 19.232 64.3536 19.16 62.4336 19.16C60.5856 19.16 58.4736 19.328 55.8336 19.904L53.9616 15.824C56.8416 14.888 59.9616 14.36 62.6256 14.36ZM66.1776 24.296V23.696C65.2656 23.456 64.0176 23.336 62.3616 23.336C59.6976 23.336 58.5456 23.576 58.5456 24.488C58.5456 25.28 59.2176 25.4 60.6816 25.4C62.6256 25.4 64.7376 24.92 66.1776 24.296ZM75.5406 9.8H81.3006V13.64H75.5406V9.8ZM75.5406 14.6H81.3006V29H75.5406V14.6ZM109.579 14.36C112.099 14.36 115.531 15.368 115.531 20.336V29H109.771V22.928C109.771 20.456 109.123 19.4 107.011 19.4C105.547 19.4 104.323 20.024 103.099 21.224V29H97.3392V22.928C97.3392 20.456 96.6912 19.4 94.5792 19.4C93.1152 19.4 91.8912 20.024 90.6672 21.224V29H84.9072V14.6H90.6672V17C91.9392 15.8 93.6432 14.36 97.1472 14.36C98.9472 14.36 101.227 14.888 102.355 17C103.867 15.56 106.075 14.36 109.579 14.36Z" fill="white"/>
</svg>
