<svg width="199" height="41" viewBox="0 0 199 41" fill="none" xmlns="http://www.w3.org/2000/svg">
<rect width="199" height="41" fill="#599E40" fill-opacity="0.24"/>
<path d="M187 34.8823H174C173.447 34.8823 173 35.33 173 35.8823C173 36.4346 173.447 36.8823 174 36.8823H189.586H190.293C190.683 36.8823 191 36.5655 191 36.1751V35.468V19.8823C191 19.33 190.552 18.8823 190 18.8823C189.447 18.8823 189 19.33 189 19.8823V32.8823C189 33.1004 189 33.2932 188.996 33.4644L174.768 19.236C174.377 18.8454 173.744 18.8455 173.353 19.2361C172.963 19.6266 172.963 20.2597 173.354 20.6502L187.582 34.8787C187.411 34.8823 187.218 34.8823 187 34.8823Z" fill="white"/>
<path d="M30.24 20.576C30.24 14.744 33.408 11.96 40.8 11.96C47.52 11.96 51.024 14.312 51.288 19.616H44.904C44.664 18.032 43.44 17.24 40.8 17.24C37.104 17.24 36.48 18.8 36.48 20.576C36.48 22.376 37.128 23.96 40.8 23.96C43.44 23.96 44.664 23.144 44.904 21.536H51.288C51.024 26.864 47.544 29.24 40.8 29.24C33.408 29.24 30.24 26.432 30.24 20.576ZM66.0111 14.36C67.6911 14.36 68.8671 14.6 69.8271 14.84V19.64C68.4831 19.304 67.4031 19.16 66.3471 19.16C64.3071 19.16 62.0751 19.4 60.4191 21.224V29H54.6591V14.6H60.4191V17C61.6911 15.104 63.6591 14.36 66.0111 14.36ZM82.2673 24.68C84.3553 24.68 85.1953 24.536 86.3713 23.6H92.0113C91.2913 27.416 88.1953 29.24 82.2673 29.24C76.6273 29.24 72.7153 27.128 72.7153 21.8C72.7153 16.472 76.6273 14.36 82.5073 14.36C88.4353 14.36 92.2513 16.472 92.2513 22.76H78.5953C79.0753 24.296 80.6833 24.68 82.2673 24.68ZM82.4833 18.44C80.9473 18.44 79.5073 18.584 78.8593 19.88H86.1073C85.4593 18.584 84.0193 18.44 82.4833 18.44ZM104.742 14.36C110.646 14.36 114.006 16.376 114.054 21.872V29H108.294V27.248C106.062 28.88 103.566 29.24 101.07 29.24C97.7822 29.24 94.9022 28.064 94.9022 24.944C94.9022 21.2 99.2222 20.216 103.422 20.216C105.438 20.216 106.974 20.48 108.294 20.96C108.294 19.232 106.47 19.16 104.55 19.16C102.702 19.16 100.59 19.328 97.9502 19.904L96.0782 15.824C98.9582 14.888 102.078 14.36 104.742 14.36ZM108.294 24.296V23.696C107.382 23.456 106.134 23.336 104.478 23.336C101.814 23.336 100.662 23.576 100.662 24.488C100.662 25.28 101.334 25.4 102.798 25.4C104.742 25.4 106.854 24.92 108.294 24.296ZM131.727 19.4H125.847V22.376C125.847 23.744 126.375 24.44 128.055 24.44C129.351 24.44 130.071 24.44 131.727 24.2V28.88C130.359 29.12 128.655 29.24 126.759 29.24C122.295 29.24 120.087 27.872 120.087 24.752V19.4H117.183V14.6H120.087V12.2L125.847 10.76V14.6H131.727V19.4ZM144.398 24.68C146.486 24.68 147.326 24.536 148.502 23.6H154.142C153.422 27.416 150.326 29.24 144.398 29.24C138.758 29.24 134.846 27.128 134.846 21.8C134.846 16.472 138.758 14.36 144.638 14.36C150.566 14.36 154.382 16.472 154.382 22.76H140.726C141.206 24.296 142.814 24.68 144.398 24.68ZM144.614 18.44C143.078 18.44 141.638 18.584 140.99 19.88H148.238C147.59 18.584 146.15 18.44 144.614 18.44Z" fill="#605E5E"/>
</svg>
