<svg width="167" height="42" viewBox="0 0 167 42" fill="none" xmlns="http://www.w3.org/2000/svg">
<rect width="167" height="41.2941" fill="#599E40" fill-opacity="0.24"/>
<path d="M155 34.8823H142C141.447 34.8823 141 35.33 141 35.8823C141 36.4346 141.447 36.8823 142 36.8823H157.586H158.293C158.683 36.8823 159 36.5655 159 36.1751V35.468V19.8823C159 19.33 158.552 18.8823 158 18.8823C157.447 18.8823 157 19.33 157 19.8823V32.8823C157 33.1004 157 33.2932 156.996 33.4644L142.768 19.236C142.377 18.8454 141.744 18.8455 141.353 19.2361C140.963 19.6266 140.963 20.2597 141.354 20.6502L155.582 34.8787C155.411 34.8823 155.218 34.8823 155 34.8823Z" fill="white"/>
<path d="M15.72 22.0141H26.76V27.2941H9.48V10.4941H15.72V22.0141ZM37.8 27.5341C30.408 27.5341 27.24 24.7261 27.24 18.8701C27.24 13.0381 30.408 10.2541 37.8 10.2541C45.168 10.2541 48.36 13.0621 48.36 18.8701C48.36 24.7021 45.168 27.5341 37.8 27.5341ZM37.8 22.2541C41.472 22.2541 42.12 20.6461 42.12 18.8701C42.12 17.1181 41.496 15.5341 37.8 15.5341C34.104 15.5341 33.48 17.0941 33.48 18.8701C33.48 20.6701 34.128 22.2541 37.8 22.2541ZM59.0014 21.5101V18.1501H69.8974V27.2941H66.2974L65.8414 24.8701C64.4254 26.5261 62.2174 27.5341 58.6894 27.5341C52.4974 27.5341 48.8494 24.7261 48.8494 18.8701C48.8494 13.0381 52.4974 10.2541 59.4094 10.2541C66.1294 10.2541 69.6334 12.6061 69.8974 17.1901H63.5134C63.2734 16.3261 62.0494 15.5341 59.4094 15.5341C55.7134 15.5341 55.0894 17.0941 55.0894 19.1101C55.0894 21.1501 55.7374 22.9741 59.4094 22.9741C61.8094 22.9741 63.2734 22.6381 63.5134 21.5101H59.0014ZM80.9484 27.5341C73.5564 27.5341 70.3884 24.7261 70.3884 18.8701C70.3884 13.0381 73.5564 10.2541 80.9484 10.2541C88.3164 10.2541 91.5084 13.0621 91.5084 18.8701C91.5084 24.7021 88.3164 27.5341 80.9484 27.5341ZM80.9484 22.2541C84.6204 22.2541 85.2684 20.6461 85.2684 18.8701C85.2684 17.1181 84.6444 15.5341 80.9484 15.5341C77.2524 15.5341 76.6284 17.0941 76.6284 18.8701C76.6284 20.6701 77.2764 22.2541 80.9484 22.2541ZM113.358 18.8701C113.358 24.7021 110.166 27.5341 102.798 27.5341C95.4058 27.5341 92.2378 24.7261 92.2378 18.8701V10.4941H98.4778V18.8701C98.4778 20.6701 99.1258 22.2541 102.798 22.2541C106.47 22.2541 107.118 20.6461 107.118 18.8701V10.4941H113.358V18.8701ZM134.716 10.4941V15.7741H127.516V27.2941H121.276V15.7741H114.076V10.4941H134.716Z" fill="white"/>
</svg>
