<svg width="151" height="160" viewBox="0 0 151 160" fill="none" xmlns="http://www.w3.org/2000/svg">
<g clip-path="url(#clip0_2_54)">
<path fill-rule="evenodd" clip-rule="evenodd" d="M7.89277 6.69708C8.05736 6.64208 8.23309 6.65214 8.38871 6.72166L55.8615 25.4783H95.1382L142.554 6.72089C142.709 6.65218 142.884 6.64232 143.048 6.69681C143.268 6.76989 143.441 6.95002 143.514 7.18122L150.963 30.7178C151.003 30.8458 151.011 30.9829 150.985 31.115L146.092 55.9801L148.837 58.1735C149.017 58.3171 149.123 58.5413 149.123 58.7794C149.124 59.0176 149.019 59.2424 148.84 59.3866L144.892 62.5743L147.788 64.9485C147.956 65.0861 148.058 65.295 148.067 65.5198C148.075 65.7443 147.99 65.9615 147.833 66.1127L143.795 70.0141L146.009 71.7016C146.172 71.8262 146.279 72.0177 146.303 72.2295C146.327 72.4414 146.266 72.6539 146.134 72.8158L139.594 80.8752L149.783 114.099C149.812 114.182 149.827 114.271 149.827 114.36C149.827 114.389 149.825 114.418 149.822 114.447C149.817 114.499 149.806 114.551 149.791 114.601L140.237 148.919C140.126 149.317 139.735 149.548 139.357 149.438L106.461 139.854L100.296 145.195C100.281 145.208 100.265 145.221 100.25 145.232L87.1116 154.858C86.9914 154.946 86.8486 154.994 86.7023 154.994H64.2389C64.0919 154.994 63.9488 154.946 63.8283 154.857L50.7492 145.231C50.7338 145.22 50.7187 145.208 50.7042 145.195L44.539 139.854L11.6429 149.438C11.2645 149.548 10.8725 149.316 10.7621 148.918L1.26789 114.602C1.24374 114.525 1.23146 114.443 1.23153 114.362C1.23145 114.274 1.24591 114.186 1.27426 114.103L11.3491 80.8742L4.8638 72.8131C4.73354 72.6512 4.6732 72.439 4.69736 72.2279C4.72152 72.0167 4.828 71.8258 4.99105 71.7016L7.20474 70.0141L3.16697 66.1127C3.0109 65.9621 2.92536 65.7463 2.93306 65.5228C2.94077 65.299 3.04095 65.0904 3.20699 64.9522L6.05526 62.579L2.10126 59.3866C1.92149 59.2417 1.81665 59.0152 1.81822 58.7761C1.8198 58.5366 1.92759 58.3121 2.10926 58.1695L4.90665 55.9755L0.0151142 31.115C-0.0107658 30.9835 -0.00331177 30.847 0.0367194 30.7195L7.42684 7.18292C7.49957 6.95122 7.67288 6.77056 7.89277 6.69708ZM64.8127 129.471L63.6704 130.062L62.3514 142.409C62.3174 142.728 62.4753 143.035 62.7465 143.177C63.0176 143.32 63.3442 143.267 63.5628 143.045L64.7032 141.89H86.255L87.5177 143.066C87.7417 143.275 88.0641 143.316 88.3281 143.168C88.592 143.021 88.7427 142.716 88.7065 142.403L87.283 130.066L86.1298 129.472C86.0854 129.452 86.0426 129.427 86.0017 129.397L83.3696 127.482H67.5712L64.9394 129.397C64.8989 129.427 64.8564 129.451 64.8127 129.471ZM102.063 100.236L92.7366 95.7419L88.8657 104.334L102.063 100.236ZM48.9923 100.237L58.3187 95.7435L62.1428 104.335L48.9923 100.237Z" fill="#FBFBFB"/>
</g>
<defs>
<clipPath id="clip0_2_54">
<rect width="151" height="159.882" fill="white"/>
</clipPath>
</defs>
</svg>
