<svg width="132" height="132" viewBox="0 0 132 132" fill="none" xmlns="http://www.w3.org/2000/svg">
<rect width="132" height="132" rx="31" fill="#599E40" fill-opacity="0.24"/>
<path d="M91.7222 63.2222C93.5325 63.2222 95 64.6897 95 66.5C95 68.3103 93.5325 69.7778 91.7222 69.7778H39.2778C37.4675 69.7778 36 68.3103 36 66.5C36 64.6897 37.4675 63.2222 39.2778 63.2222L91.7222 63.2222Z" fill="white"/>
<path d="M62.2222 40.2778C62.2222 38.4675 63.6897 37 65.5 37C67.3103 37 68.7778 38.4675 68.7778 40.2778V92.7222C68.7778 94.5325 67.3103 96 65.5 96C63.6897 96 62.2222 94.5325 62.2222 92.7222L62.2222 40.2778Z" fill="white"/>
</svg>
