<svg width="583" height="26" viewBox="0 0 583 26" fill="none" xmlns="http://www.w3.org/2000/svg">
<path d="M0 16.668H9.36C9.36 17.892 10.512 18.72 16.452 18.72C21.996 18.72 22.824 18.36 22.824 17.424C22.824 16.344 21.996 16.2 16.092 16.02C4.716 15.66 0.36 13.788 0.36 7.92C0.36 2.376 5.796 0 15.732 0C25.56 0 31.104 2.376 31.104 8.82H21.744C21.744 7.488 19.584 7.2 15.012 7.2C10.62 7.2 9.72 7.416 9.72 8.388C9.72 9.36 10.62 9.324 16.092 9.54C26.028 9.936 32.184 10.62 32.184 17.208C32.184 24.156 26.424 25.92 16.092 25.92C5.76 25.92 0 24.156 0 16.668Z" fill="white"/>
<path d="M42.6263 0.36V25.56H33.2663V0.36H42.6263Z" fill="white"/>
<path d="M58.5757 16.884V11.844H74.9197V25.56H69.5197L68.8357 21.924C66.7117 24.408 63.3997 25.92 58.1077 25.92C48.8197 25.92 43.3477 21.708 43.3477 12.924C43.3477 4.176 48.8197 0 59.1877 0C69.2677 0 74.5237 3.528 74.9197 10.404H65.3437C64.9837 9.108 63.1477 7.92 59.1877 7.92C53.6437 7.92 52.7077 10.26 52.7077 13.284C52.7077 16.344 53.6797 19.08 59.1877 19.08C62.7877 19.08 64.9837 18.576 65.3437 16.884H58.5757Z" fill="white"/>
<path d="M99.1283 0.36H108.488V25.56H96.2483L85.3763 10.692V25.56H76.0163V0.36H88.2562L99.1283 15.228V0.36Z" fill="white"/>
<path d="M119.302 0.36V25.56H109.942V0.36H119.302Z" fill="white"/>
<path d="M143.847 0.36H153.207V25.56H140.967L130.095 10.692V25.56H120.735V0.36H132.975L143.847 15.228V0.36Z" fill="white"/>
<path d="M211.303 0.36H221.347L213.067 25.56H199.171L195.031 11.052L190.891 25.56H176.995L168.715 0.36H178.759L183.979 18.144L189.451 0.36H200.611L206.083 18.144L211.303 0.36Z" fill="white"/>
<path d="M231.802 0.36V25.56H222.442V0.36H231.802Z" fill="white"/>
<path d="M263.835 0.36V8.28H253.035V25.56H243.675V8.28H232.875V0.36H263.835Z" fill="white"/>
<path d="M289.031 0.36H298.391V25.56H289.031V16.92H274.271V25.56H264.911V0.36H274.271V9H289.031V0.36Z" fill="white"/>
<path d="M352.827 0.36V25.56H343.467V13.572L336.591 25.56H330.471L323.595 13.572V25.56H314.235V0.36H325.755L333.531 14.76L341.307 0.36H352.827Z" fill="white"/>
<path d="M380.918 7.56H363.638V9.9H380.918V16.02H363.638V18.36H380.918V25.56H354.278V0.36H380.918V7.56Z" fill="white"/>
<path d="M412.581 0.36V8.28H401.781V25.56H392.421V8.28H381.621V0.36H412.581Z" fill="white"/>
<path d="M432.011 25.56L430.283 21.024H419.555L417.827 25.56H407.531L417.971 0.36H431.867L442.307 25.56H432.011ZM422.003 14.544H427.835L424.919 6.84L422.003 14.544Z" fill="white"/>
<path d="M481.639 0.36V25.56H472.28V13.572L465.404 25.56H459.284L452.408 13.572V25.56H443.047V0.36H454.568L462.344 14.76L470.12 0.36H481.639Z" fill="white"/>
<path d="M506.859 25.56L505.131 21.024H494.403L492.675 25.56H482.379L492.819 0.36H506.715L517.155 25.56H506.859ZM496.851 14.544H502.683L499.767 6.84L496.851 14.544Z" fill="white"/>
<path d="M515.355 16.668H524.715C524.715 17.892 525.867 18.72 531.807 18.72C537.351 18.72 538.179 18.36 538.179 17.424C538.179 16.344 537.351 16.2 531.447 16.02C520.071 15.66 515.715 13.788 515.715 7.92C515.715 2.376 521.151 0 531.087 0C540.915 0 546.459 2.376 546.459 8.82H537.099C537.099 7.488 534.939 7.2 530.367 7.2C525.975 7.2 525.075 7.416 525.075 8.388C525.075 9.36 525.975 9.324 531.447 9.54C541.383 9.936 547.539 10.62 547.539 17.208C547.539 24.156 541.779 25.92 531.447 25.92C521.115 25.92 515.355 24.156 515.355 16.668Z" fill="white"/>
<path d="M582.894 0.36L568.386 12.24L582.894 25.56H569.934L561.87 17.568L557.982 20.772V25.56H548.622V0.36H557.982V10.224L569.574 0.36H582.894Z" fill="white"/>
</svg>
