<svg width="216" height="41" viewBox="0 0 216 41" fill="none" xmlns="http://www.w3.org/2000/svg">
<rect width="216" height="41" fill="#FF0606" fill-opacity="0.33"/>
<path d="M204 34.8823H191C190.447 34.8823 190 35.33 190 35.8823C190 36.4346 190.447 36.8823 191 36.8823H206.586H207.293C207.683 36.8823 208 36.5655 208 36.1751V35.468V19.8823C208 19.33 207.552 18.8823 207 18.8823C206.447 18.8823 206 19.33 206 19.8823V32.8823C206 33.1004 206 33.2932 205.996 33.4644L191.768 19.236C191.377 18.8454 190.744 18.8455 190.353 19.2361C189.963 19.6266 189.963 20.2597 190.354 20.6502L204.582 34.8787C204.411 34.8823 204.218 34.8823 204 34.8823Z" fill="white"/>
<path d="M30.88 11.2V16.48H23.68V28H17.44V16.48H10.24V11.2H30.88ZM39.9483 23.68C42.0363 23.68 42.8763 23.536 44.0523 22.6H49.6923C48.9723 26.416 45.8763 28.24 39.9483 28.24C34.3083 28.24 30.3963 26.128 30.3963 20.8C30.3963 15.472 34.3083 13.36 40.1883 13.36C46.1163 13.36 49.9323 15.472 49.9323 21.76H36.2763C36.7563 23.296 38.3643 23.68 39.9483 23.68ZM40.1643 17.44C38.6283 17.44 37.1883 17.584 36.5403 18.88H43.7883C43.1403 17.584 41.7003 17.44 40.1643 17.44ZM62.0039 13.36C63.6839 13.36 64.8599 13.6 65.8199 13.84V18.64C64.4759 18.304 63.3959 18.16 62.3399 18.16C60.2999 18.16 58.0679 18.4 56.4119 20.224V28H50.6519V13.6H56.4119V16C57.6839 14.104 59.6519 13.36 62.0039 13.36ZM91.2145 13.36C93.7345 13.36 97.1665 14.368 97.1665 19.336V28H91.4065V21.928C91.4065 19.456 90.7585 18.4 88.6465 18.4C87.1825 18.4 85.9585 19.024 84.7345 20.224V28H78.9745V21.928C78.9745 19.456 78.3265 18.4 76.2145 18.4C74.7505 18.4 73.5265 19.024 72.3025 20.224V28H66.5425V13.6H72.3025V16C73.5745 14.8 75.2785 13.36 78.7825 13.36C80.5825 13.36 82.8625 13.888 83.9905 16C85.5025 14.56 87.7105 13.36 91.2145 13.36ZM98.1363 8.8H103.896V12.64H98.1363V8.8ZM98.1363 13.6H103.896V28H98.1363V13.6ZM117.583 13.36C120.823 13.36 124.495 14.368 124.495 19.576V28H118.735V21.928C118.735 19.456 117.847 18.4 115.255 18.4C113.551 18.4 111.751 19.144 110.623 20.224V28H104.863V13.6H110.623V15.52C112.351 14.32 114.559 13.36 117.583 13.36ZM134.83 13.36C140.734 13.36 144.094 15.376 144.142 20.872V28H138.382V26.248C136.15 27.88 133.654 28.24 131.158 28.24C127.87 28.24 124.99 27.064 124.99 23.944C124.99 20.2 129.31 19.216 133.51 19.216C135.526 19.216 137.062 19.48 138.382 19.96C138.382 18.232 136.558 18.16 134.638 18.16C132.79 18.16 130.678 18.328 128.038 18.904L126.166 14.824C129.046 13.888 132.166 13.36 134.83 13.36ZM138.382 23.296V22.696C137.47 22.456 136.222 22.336 134.566 22.336C131.902 22.336 130.75 22.576 130.75 23.488C130.75 24.28 131.422 24.4 132.886 24.4C134.83 24.4 136.942 23.92 138.382 23.296ZM159.175 18.4H153.295V21.376C153.295 22.744 153.823 23.44 155.503 23.44C156.799 23.44 157.519 23.44 159.175 23.2V27.88C157.807 28.12 156.103 28.24 154.207 28.24C149.743 28.24 147.535 26.872 147.535 23.752V18.4H144.631V13.6H147.535V11.2L153.295 9.76V13.6H159.175V18.4ZM169.206 23.68C171.294 23.68 172.134 23.536 173.31 22.6H178.95C178.23 26.416 175.134 28.24 169.206 28.24C163.566 28.24 159.654 26.128 159.654 20.8C159.654 15.472 163.566 13.36 169.446 13.36C175.374 13.36 179.19 15.472 179.19 21.76H165.534C166.014 23.296 167.622 23.68 169.206 23.68ZM169.422 17.44C167.886 17.44 166.446 17.584 165.798 18.88H173.046C172.398 17.584 170.958 17.44 169.422 17.44Z" fill="white"/>
</svg>
