<svg width="182" height="122" viewBox="0 0 182 122" fill="none" xmlns="http://www.w3.org/2000/svg">
<path fill-rule="evenodd" clip-rule="evenodd" d="M124.86 32.0212C132.295 25.4537 140.589 22.955 148.544 23.5867C157.029 24.2605 164.881 28.4718 170.746 34.5888C176.609 40.7061 180.638 48.8884 181.284 57.7189C181.934 66.6298 179.116 75.9629 171.687 84.1535C171.008 84.9083 170.313 85.6523 169.604 86.3874C135.906 121.534 91.1452 121.627 90.6872 121.627H90.685C90.4561 121.627 45.5527 121.625 11.7683 86.3839L11.761 86.3749C11.0635 85.6434 10.3767 84.9065 9.70012 84.166L9.69471 84.1588C2.26194 75.9753 -0.558624 66.6445 0.0900542 57.7335C0.73282 48.9045 4.75885 40.7213 10.6214 34.6018C16.4835 28.4827 24.3349 24.268 32.8216 23.5914C40.7757 22.9571 49.0717 25.4528 56.5098 32.0171C57.3097 21.8925 61.4766 14.0127 67.5254 8.59546C73.9765 2.81763 82.3835 0 90.6852 0C98.9871 0 107.394 2.81763 113.845 8.59546C119.894 14.0134 124.061 21.8947 124.86 32.0212ZM92.2278 118.064L92.2263 118.019H92.229L92.2278 118.064ZM89.1427 118.064L89.1415 118.019H89.1443L89.1427 118.064ZM116.002 69.2602C115.08 69.2602 114.76 70.6491 115.348 71.3848C116.389 72.6878 117.015 74.3643 117.015 76.1933C117.015 80.3437 113.791 83.7081 109.812 83.7081C105.833 83.7081 102.608 80.3437 102.608 76.1933C102.608 75.9713 102.33 75.861 102.205 76.0409C101.068 77.6687 100.301 79.4962 99.9861 81.415C99.8088 82.4954 98.9668 83.3915 97.9088 83.3915H97.3245C95.9437 83.3915 94.8046 82.223 95.0084 80.8082C96.4054 71.112 105.566 64.0796 116.002 64.0796C126.436 64.0796 135.597 71.112 136.994 80.8082C137.197 82.223 136.059 83.3915 134.678 83.3915C133.297 83.3915 132.204 82.2171 131.903 80.8207C130.538 74.4651 124.207 69.2602 116.002 69.2602ZM52.0291 76.1933C52.0291 75.9005 51.6652 75.7433 51.4939 75.9763C50.2793 77.6296 49.4518 79.5019 49.1014 81.4751C48.8946 82.6403 47.9856 83.6097 46.8417 83.6097H46.4129C45.0321 83.6097 43.8931 82.4417 44.0966 81.0269C45.493 71.3255 54.655 64.2984 65.0896 64.2984C75.524 64.2984 84.6861 71.3255 86.0825 81.0269C86.2862 82.4417 85.1469 83.6097 83.7661 83.6097C82.3855 83.6097 81.292 82.4363 80.9922 81.0396C79.6271 74.6801 73.2959 69.479 65.0896 69.479C64.3436 69.479 64.0707 70.5714 64.57 71.1454C65.7302 72.4794 66.4371 74.2503 66.4371 76.1933C66.4371 80.3437 63.2118 83.7081 59.2331 83.7081C55.2544 83.7081 52.0291 80.3437 52.0291 76.1933ZM98.6994 94.3165C99.6753 93.3041 101.183 92.8122 102.395 93.4973C103.607 94.1841 104.067 95.776 103.193 96.8849C100.349 100.493 95.7445 102.78 90.6659 102.78C85.59 102.78 80.9751 100.518 78.1274 96.8814C77.2572 95.7706 77.7226 94.1787 78.9367 93.4973C80.1508 92.8158 81.6566 93.3148 82.6311 94.3272C84.5082 96.2804 87.3568 97.6004 90.6659 97.6004C93.9664 97.6004 96.8181 96.2661 98.6994 94.3165Z" fill="white"/>
</svg>
