<svg width="42" height="42" viewBox="0 0 42 42" fill="none" xmlns="http://www.w3.org/2000/svg">
<path d="M32.6667 37.3333H2.33333C1.04467 37.3333 0 38.378 0 39.6667C0 40.9553 1.04467 42 2.33334 42H38.7004H40.3504C41.2615 42 42 41.2608 42 40.3497V38.7V2.33333C42 1.04467 40.9553 0 39.6667 0C38.378 0 37.3333 1.04467 37.3333 2.33333V32.6667C37.3333 33.1754 37.3333 33.6253 37.3249 34.0248L4.12522 0.825186C3.21393 -0.0861079 1.73641 -0.0860233 0.825221 0.825377C-0.0858139 1.73662 -0.0857274 3.21385 0.825414 4.12499L34.0253 37.3249C33.6256 37.3333 33.1756 37.3333 32.6667 37.3333Z" fill="#F8F8F8"/>
</svg>
